<svg width="1758" height="551" viewBox="0 0 1758 551" fill="none" xmlns="http://www.w3.org/2000/svg">
<g clip-path="url(#clip0_573_3862)">
<path d="M253.863 362.245L114.557 404.069H67.8247L45.7064 383.157C45.7064 383.157 24.614 232.564 30.2204 200.597C30.2204 200.597 192.397 99.6996 206.345 91.4854C220.293 83.2712 304.663 28.3047 304.663 28.3047H350.575L371.086 47.163L412.895 205.525L408.793 231.777L401.409 241.634L416.997 258.747L443.15 364.572V412.146L316.116 522.113H274.34L178.62 476.97L154.691 454.004L156.331 409.682L176.843 392.569L257.966 372.889L253.863 362.245Z" fill="white"/>
<path d="M461.541 308.613L449.986 320.353V362.964C449.986 362.964 486.668 429.772 536.545 435.659C586.422 441.546 613.565 434.188 620.163 431.244C626.778 427.766 633.151 423.843 639.238 419.505L650.964 433.469H722.754L726.412 421.695L742.548 437.884H885.581L892.93 433.469L941.338 432.716L967.011 412.18L969.951 382.096L1001.47 381.343V409.99L1018.36 433.503L1234.72 432.75C1234.72 432.75 1266.27 416.596 1272.32 407.047C1272.32 407.047 1289.18 438.637 1336.11 437.85C1383.05 437.063 1388.21 438.568 1413.89 414.337C1413.89 414.337 1428.55 431.21 1450.53 433.435C1472.52 435.659 1545.91 431.963 1545.91 431.963H1717.52L1735.13 413.584L1738.07 368.063L1703.61 326.205L1725.59 287.291L1727.06 246.904L1709.46 226.369L1587.72 223.426V206.552L1561.3 179.377H1507.04L1485.74 197.722L1440.28 195.532L1400.35 225.616L1401.1 235.165L1386.44 230.031L1303.54 231.503L1268.32 254.263L1228.22 226.882L1174.11 228.594L1174.69 199.228L1155.72 179.274H1084.92L1076.3 190.569L1068.82 179.274H1010.7L987.454 204.191L961.712 182.047H599.344L584.644 172.6H518.358L453.405 228.559L449.713 293.588L461.541 308.613Z" fill="white"/>
<path d="M528.272 337.637H481.335C481.335 337.637 498.77 388.667 536.306 393.391C573.842 398.114 603.378 392.021 615.48 369.877C627.581 347.733 604.745 327.574 589.293 319.497C573.842 311.42 530.289 277.297 530.289 277.297L529.605 247.657H571.859L573.876 277.297H612.095C612.095 277.297 614.796 226.164 561.808 216.786C508.82 207.408 445.782 264.702 520.238 305.773L577.226 344.995V367.139H528.956L528.272 337.637Z" fill="#EC642B"/>
<path d="M618.864 222.125V240.333H662.041V394.862H698.38L694.175 242.421L736.839 241.736V222.125H618.864Z" fill="#EC642B"/>
<path d="M860.557 262.169V226.403L752.667 222.125V402.289L863.463 399.38V352.662L786.921 370.186L785.485 326.377L842.336 327.13L841.618 286.983L786.921 302.316L784.015 249.026L860.557 262.169Z" fill="#EC642B"/>
<path d="M877.786 394.862L903.46 222.125L938.842 224.589L973.643 316.314L1020.03 222.125H1043.21L1075.11 398.764H1027.55L1022.32 277.297L988.138 343.592L953.337 343.01L928.996 267.543L922.604 394.862H877.786Z" fill="#EC642B"/>
<path d="M1224.94 282.773C1188.43 249.985 1140.3 281.336 1123.72 310.496L1128.5 222.125H1097.94V398.798H1125.8V381.412C1125.8 381.412 1159.58 411.359 1209.42 391.679C1259.26 371.999 1261.32 315.424 1224.94 282.773ZM1213.05 340.614L1195.44 359.165L1165.39 357.727L1151.72 333.769L1159.61 307.826L1185.39 299.03L1213.22 316.383L1213.05 340.614Z" fill="#2C2872"/>
<path d="M1329.41 269.014C1273.62 274.867 1272.32 333.187 1272.32 333.187C1271.67 356.392 1279.95 362.074 1279.95 362.074C1308.18 417.93 1381.31 398.627 1395.43 356.392C1409.54 314.158 1385.2 263.196 1329.41 269.014ZM1351.94 353.654L1324.22 355.879L1310.27 333.701L1318.54 310.359L1342.47 303.753L1364.21 316.348L1366.27 339.793L1351.94 353.654Z" fill="#2C2872"/>
<path d="M1430.16 268.74V246.63L1456.48 235.644V268.74H1485.57V287.838H1454.81L1455.35 364.162C1455.35 364.162 1456.45 376.243 1472.89 376.243H1485.54L1483.86 396.779H1458.02C1458.02 396.779 1431.22 396.539 1430.12 365.77C1429.03 335.001 1430.12 288.899 1430.12 288.899L1410.37 288.352V268.74H1430.16Z" fill="#2C2872"/>
<path d="M1500.89 268.569L1512.03 283.868L1506.46 396.642L1549.81 393.938L1543.04 265.934H1498.63L1500.89 268.569Z" fill="#2C2872"/>
<path d="M1571.86 268.569L1610.15 329.251L1570.29 396.642L1610.15 395.239L1625.12 341.128L1653.15 396.642L1693.01 394.451L1639.75 328.464L1679.99 265.934H1640.54L1627.51 316.075L1610.93 265.934H1569.64L1571.86 268.569Z" fill="#2C2872"/>
<path d="M1522.15 252.209C1532.12 252.209 1540.2 244.119 1540.2 234.138C1540.2 224.158 1532.12 216.067 1522.15 216.067C1512.18 216.067 1504.1 224.158 1504.1 234.138C1504.1 244.119 1512.18 252.209 1522.15 252.209Z" fill="#2C2872"/>
<path d="M84.1309 365.257L292.835 305.294V409.306L188.5 434.153L292.835 481.59L402.229 383.328L374.06 282.842L325.55 217.333L149.562 244.44L84.1309 365.257Z" fill="#2C2872"/>
<path d="M84.1313 365.257L306.373 133.754L367.292 222.125L323.295 69.3755L64.9531 222.125L84.1313 365.257Z" fill="#EC642B"/>
</g>
<defs>
<clipPath id="clip0_573_3862">
<rect width="1758" height="551" fill="white"/>
</clipPath>
</defs>
</svg>
